<svg width="40" height="40" viewBox="0 0 40 40" fill="none" xmlns="http://www.w3.org/2000/svg">
<path d="M36.84 0.103971C36.304 0.287971 36.032 0.455971 35.688 0.847971C34.8 1.85597 34.84 3.30397 35.784 4.24797C36.208 4.67197 36.712 4.89597 37.352 4.93597C38.584 5.02397 39.632 4.22397 39.92 2.97597C40.168 1.89597 39.496 0.639971 38.44 0.191971C38.032 0.0239711 37.224 -0.0240288 36.84 0.103971Z" fill="black"/>
<path d="M17.52 2.688C15.072 3.064 12.488 4.02401 10.56 5.28001C7.808 7.072 5.688 9.496 4.248 12.48C3.096 14.872 2.56 17.232 2.56 19.96C2.56 22.872 3.152 25.368 4.448 27.92C6.184 31.344 8.888 33.992 12.36 35.68C14.904 36.92 17.16 37.44 20 37.44C22.856 37.44 25.24 36.888 27.76 35.632C31.28 33.88 33.992 31.168 35.68 27.72C36.888 25.24 37.44 22.832 37.44 20C37.44 17.776 37.2 16.336 36.504 14.28C34.392 8.08801 28.936 3.60801 22.36 2.68C21.312 2.528 18.544 2.536 17.52 2.688ZM21.36 5.13601C22.016 5.472 22 5.368 22 9.52C22 13.008 21.992 13.168 21.84 13.424C21.528 13.928 21.304 14 19.992 14C18.912 14 18.8 13.984 18.552 13.816C17.992 13.448 18 13.496 18 9.488C18 5.95201 18 5.896 18.176 5.592C18.464 5.08001 18.816 4.96 20 4.96C20.888 4.96 21.048 4.984 21.36 5.13601ZM21.04 17.728C21.624 18 21.968 18.336 22.248 18.92C22.44 19.32 22.48 19.504 22.48 20.008C22.48 20.528 22.44 20.688 22.232 21.104C21.792 21.992 21 22.472 20 22.48C19.28 22.48 18.744 22.264 18.248 21.768C17.752 21.272 17.576 20.864 17.536 20.112C17.504 19.536 17.528 19.4 17.696 19.024C17.976 18.424 18.328 18.048 18.896 17.76C19.56 17.432 20.376 17.416 21.04 17.728ZM13.408 18.128C13.552 18.2 13.752 18.384 13.848 18.536C14.008 18.792 14.024 18.912 14.008 20.024C14 21.368 13.968 21.464 13.44 21.816L13.176 22H9.544C5.616 22 5.696 22.008 5.28 21.56C5.088 21.352 5.08 21.304 5.056 20.04L5.032 18.736L5.288 18.44C5.432 18.28 5.624 18.112 5.712 18.08C5.808 18.04 7.512 18.008 9.504 18.008C12.68 18 13.168 18.016 13.408 18.128ZM34.368 18.128C34.512 18.2 34.72 18.392 34.816 18.552C34.984 18.816 35 18.936 35 20.016C35 21.32 34.96 21.44 34.4 21.816L34.136 22H30.528C26.496 22 26.552 22.008 26.176 21.44C26 21.176 25.992 21.112 26.016 19.904L26.04 18.648L26.28 18.4C26.416 18.256 26.592 18.112 26.68 18.08C26.768 18.04 28.472 18.008 30.464 18.008C33.64 18 34.128 18.016 34.368 18.128ZM20.904 25.992C21.296 26.04 21.416 26.096 21.664 26.344L21.96 26.64V30.488V34.328L21.624 34.648L21.288 34.96H20.008C18.752 34.96 18.728 34.96 18.48 34.752C17.992 34.336 18 34.432 18 30.48C18 26.584 17.992 26.656 18.44 26.24C18.736 25.96 19.8 25.856 20.904 25.992Z" fill="black"/>
<path d="M1.64801 35.168C0.528015 35.576 -0.151985 36.776 0.0800148 37.936C0.400015 39.592 2.17601 40.44 3.68801 39.672C4.09601 39.464 4.68002 38.784 4.83202 38.344C5.25601 37.096 4.60802 35.648 3.41602 35.208C2.88002 35.008 2.12001 34.992 1.64801 35.168Z" fill="black"/>
</svg>
